<mxfile host="app.diagrams.net" modified="2024-06-23T14:25:05.075Z" agent="Mozilla/5.0 (Windows NT 10.0; Win64; x64) AppleWebKit/537.36 (KHTML, like Gecko) Chrome/126.0.0.0 Safari/537.36" etag="WRqUVRCPSU5GGx_wV2FZ" version="24.6.2" type="github">
  <diagram name="Page-1" id="aD3on_WNPultOrN76Y02">
    <mxGraphModel dx="880" dy="460" grid="1" gridSize="10" guides="1" tooltips="1" connect="1" arrows="1" fold="1" page="1" pageScale="1" pageWidth="850" pageHeight="1100" math="0" shadow="0">
      <root>
        <mxCell id="0" />
        <mxCell id="1" parent="0" />
        <mxCell id="DwsZLEPMfp3nKZSZKHvb-1" value="currency-coversion-service" style="rounded=0;whiteSpace=wrap;html=1;" vertex="1" parent="1">
          <mxGeometry x="70" y="80" width="300" height="60" as="geometry" />
        </mxCell>
        <mxCell id="DwsZLEPMfp3nKZSZKHvb-2" value="currency-exchange-service" style="rounded=0;whiteSpace=wrap;html=1;" vertex="1" parent="1">
          <mxGeometry x="560" y="80" width="300" height="60" as="geometry" />
        </mxCell>
        <mxCell id="DwsZLEPMfp3nKZSZKHvb-3" value="Database" style="shape=cylinder3;whiteSpace=wrap;html=1;boundedLbl=1;backgroundOutline=1;size=15;" vertex="1" parent="1">
          <mxGeometry x="660" y="290" width="110" height="100" as="geometry" />
        </mxCell>
        <mxCell id="DwsZLEPMfp3nKZSZKHvb-4" value="" style="endArrow=classic;html=1;rounded=0;exitX=1;exitY=0.5;exitDx=0;exitDy=0;entryX=0;entryY=0.5;entryDx=0;entryDy=0;entryPerimeter=0;" edge="1" parent="1" source="DwsZLEPMfp3nKZSZKHvb-1" target="DwsZLEPMfp3nKZSZKHvb-2">
          <mxGeometry width="50" height="50" relative="1" as="geometry">
            <mxPoint x="410" y="140" as="sourcePoint" />
            <mxPoint x="480" y="130" as="targetPoint" />
          </mxGeometry>
        </mxCell>
        <mxCell id="DwsZLEPMfp3nKZSZKHvb-5" value="" style="endArrow=classic;html=1;rounded=0;exitX=0.48;exitY=1.083;exitDx=0;exitDy=0;exitPerimeter=0;" edge="1" parent="1" source="DwsZLEPMfp3nKZSZKHvb-2">
          <mxGeometry width="50" height="50" relative="1" as="geometry">
            <mxPoint x="400" y="270" as="sourcePoint" />
            <mxPoint x="704" y="280" as="targetPoint" />
          </mxGeometry>
        </mxCell>
      </root>
    </mxGraphModel>
  </diagram>
</mxfile>
